<svg xmlns="http://www.w3.org/2000/svg" xmlns:xlink="http://www.w3.org/1999/xlink" width="76" height="73" viewBox="0 0 76 73"><defs><path id="vcx3a" d="M286.403 659.807a1.435 1.435 0 0 1-1.403-1.425v-19.706a1.468 1.468 0 0 1 1.403-1.464h3.779v-3.436c0-.768.539-1.43 1.302-1.43h8.133c.783.013 1.42.641 1.447 1.43v3.436h7.6v-7.822c0-.767.618-1.39 1.381-1.39h25.737c.763 0 1.382.623 1.382 1.39v7.822h7.772v-3.436a1.477 1.477 0 0 1 1.447-1.43h8.133c.763 0 1.302.662 1.302 1.43v3.436h3.78a1.468 1.468 0 0 1 1.402 1.464v19.706a1.435 1.435 0 0 1-1.403 1.425h-.843V699.6c0 .768-.534 1.4-1.297 1.4h-68.914c-.763 0-1.298-.632-1.298-1.4v-39.793zm69.588 0h-65.982v38.412h65.982zm-8.291-22.595h5.354v-2.086H347.7zm-36.273 0H334.4v-6.431h-22.973zm-18.482 0h5.355v-2.086h-5.355zm-5.181 19.814h70.472v-17.033h-70.472zm18.136-9.907c.763 0 1.382.622 1.382 1.39 0 .768-.619 1.39-1.382 1.39h-3.282v2.956c0 .768-.619 1.39-1.382 1.39a1.386 1.386 0 0 1-1.382-1.39V649.9h-2.763a1.386 1.386 0 0 1-1.382-1.39c0-.769.619-1.391 1.382-1.391h2.763v-3.129c0-.768.62-1.39 1.382-1.39.763 0 1.382.622 1.382 1.39v3.129zm40.59 0c.764 0 1.383.622 1.383 1.39 0 .768-.62 1.39-1.382 1.39h-8.81a1.386 1.386 0 0 1-1.381-1.39c0-.768.619-1.39 1.382-1.39zm-31.454 34.28a1.45 1.45 0 0 1-.355-1.09l1.216-13.133a1.406 1.406 0 0 1 1.375-1.286h9.972c.467.013.897.256 1.15.65.257.398.305.898.128 1.339l-2.028 4.964h3.45a1.363 1.363 0 0 1 1.178 2.079l-9.95 16.387c-.25.415-.697.668-1.18.67a1.353 1.353 0 0 1-1.005-.422 1.373 1.373 0 0 1-.373-1.03l.504-8.646h-3.06a1.403 1.403 0 0 1-1.022-.482zm2.538-2.3h3.008a1.36 1.36 0 0 1 1.006.415c.26.27.396.638.374 1.013l-.267 4.604 5.784-9.507h-3.051a1.412 1.412 0 0 1-1.149-.649 1.465 1.465 0 0 1-.129-1.335l2.03-4.969h-6.649z"/></defs><g><g transform="translate(-285 -628)"><use fill="#0e6cc7" xlink:href="#vcx3a"/></g></g></svg>