<svg xmlns="http://www.w3.org/2000/svg" xmlns:xlink="http://www.w3.org/1999/xlink" width="88" height="88" viewBox="0 0 88 88"><defs><path id="i20ba" d="M664.29 681.425a1.467 1.467 0 1 1-2.587-1.384 23.467 23.467 0 0 0 0-22.095c-6.101-11.434-20.317-15.758-31.75-9.656-11.435 6.101-15.758 20.317-9.657 31.75a1.467 1.467 0 1 1-2.587 1.385 26.397 26.397 0 0 1-3.107-12.423c-.001-14.58 11.818-26.4 26.398-26.402a26.4 26.4 0 0 1 12.423 3.107c12.865 6.862 17.73 22.854 10.868 35.718zm-8.82-22.825l-11.937 20.68c.26.44.397.942.4 1.453A2.933 2.933 0 1 1 641 677.8l11.93-20.664a1.466 1.466 0 0 1 2.54 1.464zM685 669c0 24.3-19.7 44-44 44s-44-19.7-44-44 19.7-44 44-44c24.289.027 43.972 19.71 44 44zm-2.933 0c0-22.68-18.387-41.067-41.067-41.067S599.933 646.32 599.933 669c0 22.68 18.386 41.067 41.067 41.067 22.67-.026 41.04-18.397 41.067-41.067zm-1.467 0c0 21.87-17.73 39.6-39.6 39.6s-39.6-17.73-39.6-39.6 17.73-39.6 39.6-39.6c21.86.024 39.576 17.74 39.6 39.6zm-2.933 0c0-20.25-16.417-36.667-36.667-36.667S604.333 648.75 604.333 669c0 20.25 16.416 36.667 36.667 36.667 20.241-.023 36.644-16.426 36.667-36.667z"/></defs><g><g transform="translate(-597 -625)"><use fill="#0e6cc7" xlink:href="#i20ba"/></g></g></svg>