<svg xmlns="http://www.w3.org/2000/svg" xmlns:xlink="http://www.w3.org/1999/xlink" width="77" height="94" viewBox="0 0 77 94"><defs><path id="jp60a" d="M331.455 222.339c0 3.824-3.12 6.936-6.955 6.936s-6.955-3.111-6.955-6.936c0-3.825 3.12-6.937 6.955-6.937s6.955 3.112 6.955 6.937zm-2.776 0a4.178 4.178 0 0 0-4.18-4.169 4.178 4.178 0 0 0-4.179 4.169 4.178 4.178 0 0 0 4.18 4.168c2.304 0 4.18-1.87 4.18-4.168zm-2.791-12.955v1.85c0 .765-.622 1.385-1.388 1.385-.767 0-1.388-.62-1.388-1.385v-1.85c0-.765.621-1.384 1.388-1.384.766 0 1.388.62 1.388 1.384zm-8.28 6.082a1.386 1.386 0 0 1-1.963 0l-1.311-1.309a1.381 1.381 0 0 1 0-1.957 1.39 1.39 0 0 1 1.962 0l1.312 1.308c.543.54.543 1.417 0 1.958zm-2.854 6.872c0 .765-.621 1.384-1.388 1.384h-1.855c-.767 0-1.388-.62-1.388-1.384 0-.764.62-1.384 1.388-1.384h1.855c.767 0 1.388.62 1.388 1.384zm2.854 8.831l-1.312 1.309a1.387 1.387 0 0 1-1.963 0 1.382 1.382 0 0 1 0-1.958l1.312-1.309a1.391 1.391 0 0 1 1.963 0c.542.541.542 1.417 0 1.958zm8.28 2.273v1.851c0 .764-.622 1.384-1.388 1.384-.767 0-1.388-.62-1.388-1.384v-1.85c0-.765.621-1.385 1.388-1.385.766 0 1.388.62 1.388 1.384zm8.778-.964a1.386 1.386 0 0 1-1.963 0l-1.312-1.309a1.381 1.381 0 0 1 0-1.957 1.39 1.39 0 0 1 1.963 0l1.312 1.308c.542.541.542 1.417 0 1.958zm4.211-10.14c0 .765-.621 1.385-1.388 1.385h-1.855c-.767 0-1.388-.62-1.388-1.384 0-.764.62-1.384 1.388-1.384h1.855c.767 0 1.388.62 1.388 1.384zm-4.21-8.18l-1.313 1.307a1.386 1.386 0 0 1-1.962 0 1.381 1.381 0 0 1 0-1.957l1.311-1.309a1.39 1.39 0 0 1 1.963 0c.542.541.542 1.418 0 1.958zM363 278.966v5.552c0 .764-.621 1.384-1.388 1.384h-32.94v7.776h10.673c.766 0 1.388.62 1.388 1.384v4.169h13.455c.766 0 1.387.62 1.387 1.384 0 .764-.62 1.384-1.387 1.384H294.81c-.767 0-1.388-.62-1.388-1.384 0-.765.62-1.384 1.388-1.384h13.456v-4.169c0-.764.622-1.384 1.388-1.384h10.674v-7.776h-32.94c-.767 0-1.388-.62-1.388-1.384v-5.553c0-.033.002-.066.005-.1 0-.011 0-.023.002-.035.005-.05.012-.101.023-.15l2.471-11.71.002-.01 2.472-11.71.003-.014 2.473-11.719a1.387 1.387 0 0 1 1.358-1.098h59.38c.657 0 1.224.458 1.359 1.098l2.474 11.72c0 .005.002.009.003.013l2.471 11.708c0 .005.002.009.003.013l2.471 11.71v.003c.01.047.018.094.023.143l.004.073c0 .022.003.043.003.066zm-4.988-10.337h-20.477l.63 8.952h21.737zm-21.302-11.721l.63 8.952h20.088l-1.89-8.952zm-.825-11.721l.63 8.952h18.439l-1.89-8.952zm-20.618 8.952h18.466l-.63-8.952h-17.206zm-.825 11.721h20.115l-.63-8.952h-18.855zm-.824 11.721h21.764l-.63-8.952h-20.504zm-19.572-23.442h18.438l.63-8.952h-17.178zm-2.474 11.721h20.088l.63-8.952h-18.828zm19.47 30.587v2.784h26.915v-2.784zm14.854-2.768v-7.777h-2.792v7.777zm1.404-10.545h32.924v-2.784h-23.355-24.737-.002-10.741c-.767 0-1.388-.62-1.388-1.385 0-.764.62-1.384 1.388-1.384h9.446l.63-8.952h-20.477l-1.89 8.952h6.289c.766 0 1.388.62 1.388 1.385 0 .764-.621 1.384-1.388 1.384h-6.612v2.784H327.3z"/></defs><g><g transform="translate(-286 -208)"><use fill="#0e6cc7" xlink:href="#jp60a"/></g></g></svg>