<svg xmlns="http://www.w3.org/2000/svg" xmlns:xlink="http://www.w3.org/1999/xlink" width="88" height="86" viewBox="0 0 88 86"><defs><path id="cgy0a" d="M995.902 675.917a5.661 5.661 0 0 1 2.46 2.273c.506.872.772 1.86.773 2.867a5.686 5.686 0 0 1-2.87 4.965l-27.787 17.036a7.294 7.294 0 0 1-3.817 1.075h-23.286a7.155 7.155 0 0 1-2.67-.506l-4.233-1.657V707H920v-31.534h14.472v4.639l3.684-2.184a7.345 7.345 0 0 1 3.726-1.021h2.544l-24.145-13.81 14.472-24.828 29.387 16.804 29.388-16.804L1008 663.091l-35.125 20.087a5.793 5.793 0 0 1 1.437 2.142l16.153-9.232a5.798 5.798 0 0 1 3.963-.653 5.56 5.56 0 0 1 1.474.482zm-3.432-33.735l-40.1 22.933 8.193 14.047 9.262 2.45 34.221-19.57zm-44.05 21.88l5.185-2.963a4.171 4.171 0 0 0-1.348-1.242c-2.083-1.18-4.738-.477-5.946 1.577a4.238 4.238 0 0 0-.435 3.27c.555 2.07 2.583 3.403 4.724 3.104zm1.795 12.838h.857a7.38 7.38 0 0 1 1.881.25l3.661.966-4.485-7.688a7.24 7.24 0 0 1-7.774-2.38 7.073 7.073 0 0 1-.563-8.041c2.007-3.42 6.423-4.597 9.89-2.635a7.004 7.004 0 0 1 2.416 2.293l5.148-2.943-25.434-14.543-11.578 19.863zm-18.637 1.433h-8.684v25.8h8.684zm63.192 5.232a2.865 2.865 0 0 0 1.076-3.956 2.801 2.801 0 0 0-1.217-1.116 2.725 2.725 0 0 0-.735-.241 2.889 2.889 0 0 0-1.982.32l-17.385 9.946c-.019.09-.019.18-.044.268-.681 2.507-2.974 4.25-5.596 4.254-.789-.07-1.57-.208-2.336-.41l-15.085-3.997.746-2.769 15.036 3.985c.612.138 1.463.31 1.678.324a2.89 2.89 0 0 0 2.76-2.122c.055-.338.084-.681.084-1.025a2.92 2.92 0 0 0-2.052-2.473l-2.624-.693-7.854-2.078-7.038-1.864a4.474 4.474 0 0 0-1.13-.152h-9.19a4.415 4.415 0 0 0-2.24.615l-5.17 3.065v15.442l5.311 2.077c.507.201 1.047.303 1.592.301h23.286c.81 0 1.604-.223 2.293-.644zm-22.83-16.4a7.115 7.115 0 0 1 1.149-8.65 7.289 7.289 0 0 1 8.731-1.143c2.837 1.62 4.223 4.923 3.38 8.056-.845 3.133-3.707 5.315-6.981 5.32a7.35 7.35 0 0 1-1.88-.247 7.182 7.182 0 0 1-4.395-3.34zm2.078-4.7a4.282 4.282 0 0 0 2.02 4.838 4.374 4.374 0 0 0 5.243-.684 4.268 4.268 0 0 0 .689-5.19 4.353 4.353 0 0 0-4.326-2.113 4.329 4.329 0 0 0-3.626 3.149zm-10.602-22.832c.8 0 1.448-.642 1.448-1.433a1.44 1.44 0 0 0-1.448-1.434c-2.112.005-3.918-1.501-4.277-3.563-.357-2.061.838-4.078 2.83-4.773v-1.697h2.895v1.697a4.304 4.304 0 0 1 2.895 4.036h-2.895c0-.792-.648-1.433-1.448-1.433-.799 0-1.447.641-1.447 1.433a1.44 1.44 0 0 0 1.447 1.434c2.113-.004 3.92 1.502 4.278 3.563a4.288 4.288 0 0 1-2.83 4.774v1.696h-2.895v-1.696a4.305 4.305 0 0 1-2.894-4.037h2.894a1.44 1.44 0 0 0 1.447 1.433zm0 10.033c-7.989-.008-14.463-6.42-14.472-14.333 0-7.916 6.48-14.333 14.472-14.333 7.994 0 14.473 6.417 14.473 14.333s-6.48 14.333-14.473 14.333zm0-25.8c-6.39.008-11.57 5.137-11.577 11.467 0 6.333 5.183 11.467 11.577 11.467 6.395 0 11.578-5.134 11.578-11.467s-5.183-11.467-11.578-11.467z"/></defs><g><g transform="translate(-920 -621)"><use fill="#0e6cc7" xlink:href="#cgy0a"/></g></g></svg>