<svg xmlns="http://www.w3.org/2000/svg" xmlns:xlink="http://www.w3.org/1999/xlink" width="109" height="74" viewBox="0 0 109 74"><defs><path id="64q9a" d="M656.418 229.71l4.81 4.04v-9.84h-4.83zm40.6 40.911l-54.115-51.623-54.922 51.727s1.539 2.805 4.89 0l50.032-46.775 48.78 46.671c3.88 2.77 5.336 0 5.336 0z"/><path id="64q9b" d="M665.068 293h-45.137c-1.065 0-1.931-.876-1.931-1.954v-33.092c0-1.077.866-1.954 1.93-1.954h45.14c1.063 0 1.93.877 1.93 1.954v33.092a1.945 1.945 0 0 1-1.932 1.954zm-45.137-35.049l-.001.003v33.092l45.14.003v-33.095zm42.241 32.122h-17.257c-1.066 0-1.933-.878-1.933-1.957v-27.232c0-1.08.867-1.957 1.933-1.957h17.257c1.067 0 1.933.878 1.933 1.957v27.232c0 1.08-.866 1.957-1.933 1.957zm-17.26-29.19v27.233l17.26.006.003-27.238zm14.086 23.05a.957.957 0 0 1-1.364 0 .982.982 0 0 1 0-1.379l.964-.976a.956.956 0 0 1 1.365 0 .982.982 0 0 1 0 1.38zm-6.754 1.952a.957.957 0 0 1-1.365 0 .982.982 0 0 1 0-1.38l6.755-6.829a.956.956 0 0 1 1.364 0 .982.982 0 0 1 0 1.38zm4.827-1.383c.174.186.28.44.28.693a.98.98 0 0 1-.077.37 1.008 1.008 0 0 1-.203.323 1.009 1.009 0 0 1-.685.283c-.251 0-.502-.108-.685-.283a.91.91 0 0 1-.203-.322.98.98 0 0 1-.077-.37c0-.264.106-.508.28-.694.357-.36 1.003-.36 1.37 0zm-16.986 5.571h-17.258c-1.066 0-1.932-.878-1.932-1.957v-27.232c0-1.08.866-1.957 1.932-1.957h17.258c1.066 0 1.933.878 1.933 1.957v27.232c0 1.08-.867 1.957-1.933 1.957zm-17.258-29.2l-.003.005v27.238l17.26.006.004-27.244zm7.89 8.04a.957.957 0 0 1-1.365 0 .982.982 0 0 1 0-1.38l4.37-4.418a.956.956 0 0 1 1.364 0 .982.982 0 0 1 0 1.38zm-4.316-1.492a.957.957 0 0 1-1.364 0 .982.982 0 0 1 0-1.38l2.895-2.926a.956.956 0 0 1 1.364 0 .982.982 0 0 1 0 1.38zm.566 2.523a.956.956 0 0 1 1.364 0 .982.982 0 0 1 0 1.38l-.965.975a.957.957 0 0 1-1.364 0 .982.982 0 0 1 0-1.38z"/></defs><g><g transform="translate(-588 -219)"><use fill="#0e6cc7" xlink:href="#64q9a"/></g><g transform="translate(-588 -219)"><use fill="#0e6cc7" xlink:href="#64q9b"/></g></g></svg>