<svg xmlns="http://www.w3.org/2000/svg" xmlns:xlink="http://www.w3.org/1999/xlink" width="70" height="84" viewBox="0 0 70 84"><defs><path id="hheka" d="M947.764 271.13c-.18 0-.36-.036-.541-.109-.799-.322-1.106-1.154-.914-2.473l1.768-15.836h-8.003c-1.13 0-2.02-.465-2.438-1.278-.419-.811-.288-1.816.358-2.755l12.828-18.204c.754-1.095 1.547-1.492 2.35-1.167.8.322 1.107 1.157.913 2.48l-1.612 13.198h9.365c1.13 0 2.019.466 2.438 1.278.419.812.288 1.816-.358 2.755l-14.337 20.824c-.59.857-1.199 1.287-1.817 1.288zm2.887-19.512l-1.647 14.75 12.915-18.759a1.57 1.57 0 0 0 .09-.148 1.497 1.497 0 0 0-.171-.01h-10.743c-.35 0-.681-.151-.913-.416a1.242 1.242 0 0 1-.296-.967l1.48-12.12-11.38 16.152c-.035.05-.063.097-.084.137.048.006.105.01.172.01h9.367c.346 0 .677.149.908.41.231.263.34.612.302.96zM997 237.014c0 .68-.545 1.232-1.218 1.232h-.081v5.343c0 3.159-2.24 5.796-5.198 6.374V283.7c0 11.194-8.998 20.3-20.058 20.3-5.237 0-10.193-2.03-13.954-5.717a20.286 20.286 0 0 1-6.033-12.872 3.865 3.865 0 0 1-2.67-3.684v-1.397h-14.373c-3.537 0-6.415-2.913-6.415-6.493v-47.343c0-3.58 2.878-6.493 6.415-6.493h36.38c3.538 0 6.416 2.913 6.416 6.493v47.343c0 3.58-2.878 6.493-6.415 6.493h-14.374v1.397a3.867 3.867 0 0 1-2.522 3.634 17.819 17.819 0 0 0 5.286 11.15c3.304 3.24 7.658 5.024 12.26 5.024 9.716 0 17.621-8 17.621-17.835v-33.736c-2.957-.578-5.197-3.215-5.197-6.374v-5.343h-.081a1.225 1.225 0 0 1-1.218-1.232c0-.681.545-1.233 1.218-1.233h2.68v-6.658c0-.68.545-1.233 1.218-1.233.672 0 1.218.552 1.218 1.233v6.658h2.76v-6.658c0-.68.546-1.233 1.219-1.233s1.218.552 1.218 1.233v6.658h2.68c.673 0 1.218.552 1.218 1.233zm-63.585 40.849h36.38c2.195 0 3.98-1.807 3.98-4.027v-47.343c0-2.22-1.785-4.027-3.98-4.027h-36.38c-2.194 0-3.979 1.806-3.979 4.027v47.343c0 2.22 1.785 4.027 3.98 4.027zm16.81 3.863c0 .77.62 1.397 1.38 1.397a1.39 1.39 0 0 0 1.381-1.397v-1.397h-2.761zm43.04-43.48h-7.959v5.343c0 2.22 1.785 4.027 3.98 4.027 2.193 0 3.978-1.807 3.978-4.027z"/></defs><g><g transform="translate(-927 -220)"><use fill="#0e6cc7" xlink:href="#hheka"/></g></g></svg>